<svg xmlns="http://www.w3.org/2000/svg" enable-background="new 0 0 512 512" version="1" viewBox="0 0 512 512" id="adobe-coldfusion-enterprise"><path fill="#CADBFE" d="M93.867,12.8h326.016C470.547,12.8,512,54.253,512,104.918v314.965
																C512,470.547,470.547,512,419.883,512H92.118C41.453,512,0,470.547,0,419.882V106.667
																C0,54.933,42.134,12.8,93.867,12.8"></path><path fill="#000F34" d="M98.133,34.133h317.482c41.45,0,75.051,33.601,75.051,75.051v306.431
																c0,41.45-33.602,75.051-75.051,75.051H96.384c-41.45,0-75.051-33.601-75.051-75.051V110.933
																C21.333,68.267,55.466,34.133,98.133,34.133"></path><rect width="512" height="499.2" y="12.799" fill="none"></rect><g><path fill="#FFF" d="M273.908,371.003c0,2.057-0.686,3.089-2.403,3.774c-8.92,3.774-23.338,5.146-38.095,5.146
				c-53.538,0-100.905-35.006-100.905-117.374c0-70.699,41.875-118.06,105.711-118.06c16.815,0,29.169,1.712,35.692,4.8
				c1.711,0.691,2.057,1.717,2.057,3.774v29.521c0,2.743-1.371,2.743-2.403,2.403c-8.234-4.12-20.589-6.523-35.006-6.523
				c-40.152,0-66.924,30.546-66.924,83.053c0,64.867,36.724,84.09,66.924,84.09c13.732,0,22.992-1.031,32.949-4.466
				c1.371-0.686,2.403-0.686,2.403,1.717V371.003z M292.015,247.783l19.706,0l0,130.145c0,1.299,0.65,2.382,2.382,2.382l33.126,0
				c1.954,0,2.387-1.083,2.387-2.382l0-130.145l27.501,0c1.732-0.217,2.16-0.65,2.16-2.382l0-29.017c0-1.299-0.428-1.732-2.16-1.732
				l-27.501,0l0-10.827c0-16.891,6.063-25.553,18.19-25.553c2.593,0,6.491,0.433,9.311,1.083c1.732,0.217,2.377-0.433,2.377-2.165
				l0-27.935c0-1.732-0.428-2.382-2.16-3.032c-3.47-1.299-8.018-1.732-14.298-1.732c-21.005,0-35.947,8.012-44.603,25.769
				c-4.764,9.528-6.93,20.572-6.93,33.565l0,10.827l-19.489,0c-1.299,0-1.732,0.433-1.732,2.165l0,28.801
				c0,1.732,0.433,2.382,1.732,2.382V247.783z"></path><path fill="#CADBFE" d="M273.908,371.003c0,2.057-0.686,3.089-2.403,3.774c-8.92,3.774-23.338,5.146-38.095,5.146
				c-53.538,0-100.905-35.006-100.905-117.374c0-70.699,41.875-118.06,105.711-118.06c16.815,0,29.169,1.712,35.692,4.8
				c1.711,0.691,2.057,1.717,2.057,3.774v29.521c0,2.743-1.371,2.743-2.403,2.403c-8.234-4.12-20.589-6.523-35.006-6.523
				c-40.152,0-66.924,30.546-66.924,83.053c0,64.867,36.724,84.09,66.924,84.09c13.732,0,22.992-1.031,32.949-4.466
				c1.371-0.686,2.403-0.686,2.403,1.717V371.003z M292.015,247.783l19.706,0l0,130.145c0,1.299,0.65,2.382,2.382,2.382l33.126,0
				c1.954,0,2.387-1.083,2.387-2.382l0-130.145l27.501,0c1.732-0.217,2.16-0.65,2.16-2.382l0-29.017c0-1.299-0.428-1.732-2.16-1.732
				l-27.501,0l0-10.827c0-16.891,6.063-25.553,18.19-25.553c2.593,0,6.491,0.433,9.311,1.083c1.732,0.217,2.377-0.433,2.377-2.165
				l0-27.935c0-1.732-0.428-2.382-2.16-3.032c-3.47-1.299-8.018-1.732-14.298-1.732c-21.005,0-35.947,8.012-44.603,25.769
				c-4.764,9.528-6.93,20.572-6.93,33.565l0,10.827l-19.489,0c-1.299,0-1.732,0.433-1.732,2.165l0,28.801
				c0,1.732,0.433,2.382,1.732,2.382V247.783z" opacity=".15"></path></g></svg>